/* XPM */
static char *_615831190013[] = {
/* columns rows colors chars-per-pixel */
"32 32 34 1 ",
"  c #0037FE",
". c #0043FF",
"X c #0047FF",
"o c #0051FF",
"O c #005AFF",
"+ c #005BFF",
"@ c #0066FA",
"# c #0063FF",
"$ c #006DFF",
"% c #0075FF",
"& c #007DFF",
"* c #007EFF",
"= c #0086FF",
"- c #008DFE",
"; c #008EFF",
": c #0091FF",
"> c #0095FF",
", c #0096FF",
"< c #009DFF",
"1 c #00A3FF",
"2 c #00A4FF",
"3 c #00ABFF",
"4 c #00B1FF",
"5 c #00B2FF",
"6 c #00B8FF",
"7 c #00BDFF",
"8 c #00BEFF",
"9 c #00C3FF",
"0 c #00C4FF",
"q c #00C8FF",
"w c #00C9FF",
"e c #00CBFF",
"r c #00CCFF",
"t c None",
/* pixels */
"tttttttttttttttttttttttttttttttt",
"tttttttttttttttttttttttttttttttt",
"tttttttttttttttttttttttttttttttt",
"tttttttttttttttttttttttttttttttt",
"tttttttttttttttttttttttttttttttt",
"tttttttttttttttttttttttttttttttt",
"tttttttttrrrrrrrrrrwtttttttttttt",
"tttttttttrrrrrrrrrrrrwtttttttttt",
"tttttttttrrrrrrrrrrrw07ttttttttt",
"tttttttttrrrtttttttw076ttttttttt",
"tttttttttrrrtttttttt764ttttttttt",
"tttttttttttttttttttt643-tttttttt",
"tttttttttttttttttttt432:tttttttt",
"tttttttttttttttttttt32<ttttttttt",
"tttttttttrrrrrw096432<,ttttttttt",
"tttttttttrrrrw975532<,tttttttttt",
"tttttttttrrrw976432<,ttttttttttt",
"tttttttttrrwtttt32<,tttttttttttt",
"tttttttttrw9ttttt<,-=ttttttttttt",
"tttttttttw97tttttt-=&%tttttttttt",
"ttttttttt076tttttt@=%$tttttttttt",
"ttttttttt764ttttttt%$#Ottttttttt",
"ttttttttt643tttttttt#Oo.tttttttt",
"tttttttttt32tttttttttoX tttttttt",
"tttttttttttttttttttttttttttttttt",
"tttttttttttttttttttttttttttttttt",
"tttttttttttttttttttttttttttttttt",
"tttttttttttttttttttttttttttttttt",
"tttttttttttttttttttttttttttttttt",
"tttttttttttttttttttttttttttttttt",
"tttttttttttttttttttttttttttttttt",
"tttttttttttttttttttttttttttttttt"
};
