/* XPM */
static char *_615831146375[] = {
/* columns rows colors chars-per-pixel */
"16 16 14 1 ",
"  c #0047FF",
". c #005BFF",
"X c #006CFF",
"o c #007DFF",
"O c #008EFF",
"+ c #009DFF",
"@ c #00ABFF",
"# c #00B8FF",
"$ c #00BCFF",
"% c #00C3FF",
"& c #00C4FF",
"* c #00CAFF",
"= c #00CCFF",
"- c None",
/* pixels */
"----------------",
"----------------",
"----------------",
"----*=====------",
"-----=====%-----",
"-----=----#@----",
"----------@+----",
"-----==&#@+-----",
"-----=%#@+------",
"-----%---Oo-----",
"----$#---oX-----",
"-----@----. ----",
"----------------",
"----------------",
"----------------",
"----------------"
};
