/* XPM */
static char *_615831204327[] = {
/* columns rows colors chars-per-pixel */
"64 64 77 1 ",
"  c #003AFA",
". c #0042FF",
"X c #004DF8",
"o c #0048FF",
"O c #004BFF",
"+ c #004DFF",
"@ c #0051FF",
"# c #0056FF",
"$ c #005AFF",
"% c #005BFF",
"& c #005FFF",
"* c #0062FE",
"= c #0063FF",
"- c #0067FF",
"; c #006CF8",
": c #0068FF",
"> c #006DFF",
", c #0071FF",
"< c #0075FF",
"1 c #0079FF",
"2 c #007AFF",
"3 c #007DFF",
"4 c #007EFF",
"5 c #0084FB",
"6 c #0082FF",
"7 c #0086FF",
"8 c #008AFF",
"9 c #008BFF",
"0 c #008EFF",
"q c #008FFF",
"w c #009AF6",
"e c #0092FF",
"r c #0095FF",
"t c #0096FF",
"y c #0099FF",
"u c #009AFF",
"i c #009DFE",
"p c #009DFF",
"a c #00A0FB",
"s c #00A0FF",
"d c #00A1FF",
"f c #00A3FF",
"g c #00A4FF",
"h c #00A5FF",
"j c #00A6FF",
"k c #00A7FF",
"l c #00ABFB",
"z c #00A8FF",
"x c #00A9FF",
"c c #00ABFF",
"v c #00AEFF",
"b c #00AFFF",
"n c #00B1FF",
"m c #00B2FF",
"M c #00B5FE",
"N c #00B5FF",
"B c #00B7FE",
"V c #00B7FF",
"C c #00B8FF",
"Z c #00B9FF",
"A c #00BAFF",
"S c #00BBFF",
"D c #00BDFF",
"F c #00BEFF",
"G c #00C0FF",
"H c #00C1FF",
"J c #00C3FF",
"K c #00C4FF",
"L c #00C5FF",
"P c #00C6FF",
"I c #00C7FF",
"U c #00C8FF",
"Y c #00C9FF",
"T c #00CAFF",
"R c #00CBFF",
"E c #00CCFF",
"W c None",
/* pixels */
"WWWWWWWWWWWWWWWWWWWWWWWWWWWWWWWWWWWWWWWWWWWWWWWWWWWWWWWWWWWWWWWW",
"WWWWWWWWWWWWWWWWWWWWWWWWWWWWWWWWWWWWWWWWWWWWWWWWWWWWWWWWWWWWWWWW",
"WWWWWWWWWWWWWWWWWWWWWWWWWWWWWWWWWWWWWWWWWWWWWWWWWWWWWWWWWWWWWWWW",
"WWWWWWWWWWWWWWWWWWWWWWWWWWWWWWWWWWWWWWWWWWWWWWWWWWWWWWWWWWWWWWWW",
"WWWWWWWWWWWWWWWWWWWWWWWWWWWWWWWWWWWWWWWWWWWWWWWWWWWWWWWWWWWWWWWW",
"WWWWWWWWWWWWWWWWWWWWWWWWWWWWWWWWWWWWWWWWWWWWWWWWWWWWWWWWWWWWWWWW",
"WWWWWWWWWWWWWWWWWWWWWWWWWWWWWWWWWWWWWWWWWWWWWWWWWWWWWWWWWWWWWWWW",
"WWWWWWWWWWWWWWWWWWWWWWWWWWWWWWWWWWWWWWWWWWWWWWWWWWWWWWWWWWWWWWWW",
"WWWWWWWWWWWWWWWWWWWWWWWWWWWWWWWWWWWWWWWWWWWWWWWWWWWWWWWWWWWWWWWW",
"WWWWWWWWWWWWWWWWWWWWWWWWWWWWWWWWWWWWWWWWWWWWWWWWWWWWWWWWWWWWWWWW",
"WWWWWWWWWWWWWWWWWWWWWWWWWWWWWWWWWWWWWWWWWWWWWWWWWWWWWWWWWWWWWWWW",
"WWWWWWWWWWWWWWWWWWWWWWWWWWWWWWWWWWWWWWWWWWWWWWWWWWWWWWWWWWWWWWWW",
"WWWWWWWWWWWWWWWWWWWWWWWWWWWWWWWWWWWWWWWWWWWWWWWWWWWWWWWWWWWWWWWW",
"WWWWWWWWWWWWWWWWWWWWWWWWWWWWWWWWWWWWWWWWWWWWWWWWWWWWWWWWWWWWWWWW",
"WWWWWWWWWWWWWWWWWWWEEERMEEEZLRRRJJREEMWWWWWWWWWWWWWWWWWWWWWWWWWW",
"WWWWWWWWWWWWWWWWWWEEEEEEEEEEERRERRREEEEEEWWWWWWWWWWWWWWWWWWWWWWW",
"WWWWWWWWWWWWWWWWWWEEEEEEEEEEEEEEEEEEEEEEEELWWWWWWWWWWWWWWWWWWWWW",
"WWWWWWWWWWWWWWWWWWEEEEEEEEEEEEEEEEEEEEEEEERLWWWWWWWWWWWWWWWWWWWW",
"WWWWWWWWWWWWWWWWWWEEEEEEEEEEEEEEEEEEEEREERLLJWWWWWWWWWWWWWWWWWWW",
"WWWWWWWWWWWWWWWWWWEEEEEEEEEEEEEEEEEEEERRRLJJFWWWWWWWWWWWWWWWWWWW",
"WWWWWWWWWWWWWWWWWWEEEEEEEZWWWWWWWWWwREERLJFFZZWWWWWWWWWWWWWWWWWW",
"WWWWWWWWWWWWWWWWWWEEEEEERWWWWWWWWWWWWWRLJJFZZMWWWWWWWWWWWWWWWWWW",
"WWWWWWWWWWWWWWWWWWEEEEEERWWWWWWWWWWWWWWaJFZZMnxWWWWWWWWWWWWWWWWW",
"WWWWWWWWWWWWWWWWWWEEEEEElWWWWWWWWWWWWWWWFZZMMcxWWWWWWWWWWWWWWWWW",
"WWWWWWWWWWWWWWWWWWWREEEEWWWWWWWWWWWWWWWWZZMnnxxWWWWWWWWWWWWWWWWW",
"WWWWWWWWWWWWWWWWWWWWWWWWWWWWWWWWWWWWWWWWnMnccxgWWWWWWWWWWWWWWWWW",
"WWWWWWWWWWWWWWWWWWWWWWWWWWWWWWWWWWWWWWWWMncxxgdWWWWWWWWWWWWWWWWW",
"WWWWWWWWWWWWWWWWWWWWWWWWWWWWWWWWWWWWWWWWnncxddpWWWWWWWWWWWWWWWWW",
"WWWWWWWWWWWWWWWWWWWWWWWWWWWWWWWWWWWWWWWWccxgdp9WWWWWWWWWWWWWWWWW",
"WWWWWWWWWWWWWWWWWWWWWWWWWWWWWWWWWWWWWWWccxgdpuWWWWWWWWWWWWWWWWWW",
"WWWWWWWWWWWWWWWWWWWWWMMEWWWWWWWWWWWWpnncggdputWWWWWWWWWWWWWWWWWW",
"WWWWWWWWWWWWWWWWWWEEEEEEEEEERLJJFZZMnnxxgdput9WWWWWWWWWWWWWWWWWW",
"WWWWWWWWWWWWWWWWWWEEEEEEERERLJFJZZMnccxgdputeWWWWWWWWWWWWWWWWWWW",
"WWWWWWWWWWWWWWWWWWEEEEEEERRLJJFZZMnncxgduuteWWWWWWWWWWWWWWWWWWWW",
"WWWWWWWWWWWWWWWWWWEEEERERRLJJFZMMMccxgdputWWWWWWWWWWWWWWWWWWWWWW",
"WWWWWWWWWWWWWWWWWWEEEERRRLLFFZZMnccxgppuuWWWWWWWWWWWWWWWWWWWWWWW",
"WWWWWWWWWWWWWWWWWWEERRRRLJJFFZMnncxgdput;WWWWWWWWWWWWWWWWWWWWWWW",
"WWWWWWWWWWWWWWWWWWEERRRLWWWWWWWWWggppuee9WWWWWWWWWWWWWWWWWWWWWWW",
"WWWWWWWWWWWWWWWWWWEERRLJWWWWWWWWWWdpute987WWWWWWWWWWWWWWWWWWWWWW",
"WWWWWWWWWWWWWWWWWWERRLJJFWWWWWWWWWWttee976WWWWWWWWWWWWWWWWWWWWWW",
"WWWWWWWWWWWWWWWWWWRRLJJFWWWWWWWWWWWWe997642WWWWWWWWWWWWWWWWWWWWW",
"WWWWWWWWWWWWWWWWWWRLJFFZWWWWWWWWWWWW988642<*WWWWWWWWWWWWWWWWWWWW",
"WWWWWWWWWWWWWWWWWWLJJFZZWWWWWWWWWWWWW7642<,>XWWWWWWWWWWWWWWWWWWW",
"WWWWWWWWWWWWWWWWWWLJFZZMWWWWWWWWWWWWW442<,>:*WWWWWWWWWWWWWWWWWWW",
"WWWWWWWWWWWWWWWWWWJFZZMnWWWWWWWWWWWWWW2<,>:*&$WWWWWWWWWWWWWWWWWW",
"WWWWWWWWWWWWWWWWWWFZMMMcWWWWWWWWWWWWWWW,>-*&$#WWWWWWWWWWWWWWWWWW",
"WWWWWWWWWWWWWWWWWWFZMnccgWWWWWWWWWWWWWWW:**$#@+WWWWWWWWWWWWWWWWW",
"WWWWWWWWWWWWWWWWWWZMnccxdWWWWWWWWWWWWWWW*&$#@+oWWWWWWWWWWWWWWWWW",
"WWWWWWWWWWWWWWWWWWgnnxxd5WWWWWWWWWWWWWWWW$$@oo.WWWWWWWWWWWWWWWWW",
"WWWWWWWWWWWWWWWWWWWWWWWWWWWWWWWWWWWWWWWWWW+ WWWWWWWWWWWWWWWWWWWW",
"WWWWWWWWWWWWWWWWWWWWWWWWWWWWWWWWWWWWWWWWWWWWWWWWWWWWWWWWWWWWWWWW",
"WWWWWWWWWWWWWWWWWWWWWWWWWWWWWWWWWWWWWWWWWWWWWWWWWWWWWWWWWWWWWWWW",
"WWWWWWWWWWWWWWWWWWWWWWWWWWWWWWWWWWWWWWWWWWWWWWWWWWWWWWWWWWWWWWWW",
"WWWWWWWWWWWWWWWWWWWWWWWWWWWWWWWWWWWWWWWWWWWWWWWWWWWWWWWWWWWWWWWW",
"WWWWWWWWWWWWWWWWWWWWWWWWWWWWWWWWWWWWWWWWWWWWWWWWWWWWWWWWWWWWWWWW",
"WWWWWWWWWWWWWWWWWWWWWWWWWWWWWWWWWWWWWWWWWWWWWWWWWWWWWWWWWWWWWWWW",
"WWWWWWWWWWWWWWWWWWWWWWWWWWWWWWWWWWWWWWWWWWWWWWWWWWWWWWWWWWWWWWWW",
"WWWWWWWWWWWWWWWWWWWWWWWWWWWWWWWWWWWWWWWWWWWWWWWWWWWWWWWWWWWWWWWW",
"WWWWWWWWWWWWWWWWWWWWWWWWWWWWWWWWWWWWWWWWWWWWWWWWWWWWWWWWWWWWWWWW",
"WWWWWWWWWWWWWWWWWWWWWWWWWWWWWWWWWWWWWWWWWWWWWWWWWWWWWWWWWWWWWWWW",
"WWWWWWWWWWWWWWWWWWWWWWWWWWWWWWWWWWWWWWWWWWWWWWWWWWWWWWWWWWWWWWWW",
"WWWWWWWWWWWWWWWWWWWWWWWWWWWWWWWWWWWWWWWWWWWWWWWWWWWWWWWWWWWWWWWW",
"WWWWWWWWWWWWWWWWWWWWWWWWWWWWWWWWWWWWWWWWWWWWWWWWWWWWWWWWWWWWWWWW",
"WWWWWWWWWWWWWWWWWWWWWWWWWWWWWWWWWWWWWWWWWWWWWWWWWWWWWWWWWWWWWWWW"
};
